<svg xmlns="http://www.w3.org/2000/svg" viewBox="0 0 1979.09 152.38"><defs><style>.a{fill:none;}.a,.b,.c{stroke:#a87d50;stroke-miterlimit:10;}.b,.d{fill:#c3996b;}.c{fill:#f7f1ea;}</style></defs><title>bread</title><line class="a" x1="1581.71" y1="80.47" x2="1566.95" y2="115.64"/><line class="a" x1="1571.29" y1="105.31" x2="1573.48" y2="113.57"/><line class="a" x1="1571.29" y1="105.31" x2="1564.66" y2="107.94"/><line class="a" x1="1317.71" y1="81.47" x2="1302.95" y2="116.64"/><line class="a" x1="1307.29" y1="106.31" x2="1309.48" y2="114.57"/><line class="a" x1="1307.29" y1="106.31" x2="1300.66" y2="108.94"/><line class="a" x1="1057.21" y1="81.47" x2="1042.45" y2="116.64"/><line class="a" x1="1046.78" y1="106.31" x2="1048.98" y2="114.57"/><line class="a" x1="1046.78" y1="106.31" x2="1040.16" y2="108.94"/><line class="a" x1="277.31" y1="81.47" x2="262.55" y2="116.64"/><line class="a" x1="266.88" y1="106.31" x2="269.08" y2="114.57"/><line class="a" x1="266.88" y1="106.31" x2="260.26" y2="108.94"/><line class="a" x1="537.45" y1="81.47" x2="522.69" y2="116.64"/><line class="a" x1="527.02" y1="106.31" x2="529.22" y2="114.57"/><line class="a" x1="527.02" y1="106.31" x2="520.4" y2="108.94"/><line class="a" x1="797.58" y1="81.47" x2="782.82" y2="116.64"/><line class="a" x1="787.15" y1="106.31" x2="789.35" y2="114.57"/><line class="a" x1="787.15" y1="106.31" x2="780.53" y2="108.94"/><line class="a" x1="17.23" y1="81.47" x2="2.47" y2="116.64"/><line class="a" x1="6.81" y1="106.31" x2="9" y2="114.57"/><line class="a" x1="6.81" y1="106.31" x2="0.18" y2="108.94"/><path class="b" d="M149.31,134.05c4.84,1.76,34,12.73,41.61,32.31,1,2.62,3,7.8,1.43,13.85-.12.48-3.19,11.81-13.37,14.08a17.64,17.64,0,0,1-11.69-1.67c.33.83.79,2.06,1.23,3.57,2.15,7.33,1.48,12.92.33,23.28-1.65,15-1.76,17-3,21.85-2,8-4.84,11.15-7.28,13.3a22.7,22.7,0,0,1-8.43,4.55c-8.21,2.71-20.14,1.53-21.16,1.42Q139.14,197.32,149.31,134.05Z" transform="translate(-55.87 -129.23)"/><path class="c" d="M72.5,179.71c-1.41-.88-10.39-6.68-11-16.21-.54-8.68,6.24-14.8,11-19.08,9.14-8.25,19.26-10.56,28.5-12.55a95.12,95.12,0,0,1,32.67-1.3c5.91.82,27.82,4.12,43.13,19.34,3.9,3.87,6.45,7.6,7.58,12.29.4,1.63,2.24,10.05-2.87,17.51-4.67,6.8-13.35,10.22-22.22,8.89-.77,12.54-1.84,27.72-3.4,45.74-.65,7.53-1.47,15.64-7.58,20.91-1.51,1.31-4.9,3.78-14.9,5-9.63,1.14-15.4-.09-34.8-3.53-20.07-3.55-26.39-4.43-29.5-10.06a14.67,14.67,0,0,1-1.57-8.1C68.38,217.64,71.9,185.21,72.5,179.71Z" transform="translate(-55.87 -129.23)"/><ellipse class="d" cx="102.62" cy="172.26" rx="13.17" ry="3.52" transform="translate(-137.05 123.14) rotate(-82.76)"/><ellipse class="d" cx="129.51" cy="176.61" rx="13.17" ry="3.52" transform="matrix(0.13, -0.99, 0.99, 0.13, -117.87, 153.62)"/><path class="d" d="M131.41,209.4c1.37,3.88-10.59,15.91-23.07,14.22s-20.91-16.75-18.53-20.09c1.42-2,6,1.1,20.18,3.14C124.83,208.81,130.55,207,131.41,209.4Z" transform="translate(-55.87 -129.23)"/><line class="a" x1="28.79" y1="124.93" x2="23.25" y2="147.44"/><line class="a" x1="23.25" y1="147.44" x2="9.49" y2="145.95"/><line class="a" x1="66.6" y1="130.43" x2="61.16" y2="151.88"/><line class="a" x1="61.16" y1="151.88" x2="48.02" y2="149.77"/><line class="a" x1="89.12" y1="94.77" x2="74.73" y2="130.1"/><line class="a" x1="78.95" y1="119.73" x2="81.24" y2="127.96"/><line class="a" x1="78.95" y1="119.73" x2="72.36" y2="122.43"/><line class="a" x1="288.16" y1="114.93" x2="282.58" y2="137.44"/><line class="a" x1="282.58" y1="137.44" x2="268.72" y2="135.95"/><path class="b" d="M409.14,134.05c4.87,1.76,34.21,12.73,41.9,32.31,1,2.62,3,7.8,1.44,13.85-.12.48-3.21,11.81-13.46,14.08a17.89,17.89,0,0,1-11.78-1.67c.33.83.8,2.06,1.24,3.57,2.17,7.33,1.49,12.92.34,23.28-1.67,15-1.78,17-3,21.85-2.06,8-4.88,11.15-7.34,13.3a22.93,22.93,0,0,1-8.49,4.55c-8.27,2.71-20.28,1.53-21.31,1.42Q398.89,197.32,409.14,134.05Z" transform="translate(-55.87 -129.23)"/><path class="c" d="M331.79,179.71c-1.43-.88-10.47-6.68-11.06-16.21-.54-8.68,6.29-14.8,11.06-19.08,9.19-8.25,19.39-10.56,28.69-12.55a96.51,96.51,0,0,1,32.91-1.3c5.94.82,28,4.12,43.43,19.34,3.92,3.87,6.49,7.6,7.64,12.29.39,1.63,2.25,10.05-2.9,17.51-4.7,6.8-13.44,10.22-22.38,8.89-.77,12.54-1.85,27.72-3.42,45.74-.65,7.53-1.48,15.64-7.63,20.91-1.52,1.31-4.94,3.78-15,5-9.69,1.14-15.51-.09-35-3.53-20.22-3.55-26.58-4.43-29.72-10.06a14.78,14.78,0,0,1-1.58-8.1C327.64,217.64,331.18,185.21,331.79,179.71Z" transform="translate(-55.87 -129.23)"/><ellipse class="d" cx="362.12" cy="172.26" rx="13.17" ry="3.55" transform="translate(89.42 380.35) rotate(-82.71)"/><ellipse class="d" cx="389.2" cy="176.61" rx="13.17" ry="3.55" transform="translate(108.74 411.01) rotate(-82.71)"/><path class="d" d="M385.2,210.76c1,2.84-7.79,11.64-17,10.4s-15.4-12.25-13.65-14.69c1.05-1.46,4.46.8,14.87,2.3C380.36,210.33,384.57,209,385.2,210.76Z" transform="translate(-55.87 -129.23)"/><line class="a" x1="326.24" y1="130.43" x2="320.76" y2="151.88"/><line class="a" x1="320.76" y1="151.88" x2="307.53" y2="149.77"/><line class="a" x1="349.13" y1="94.59" x2="313.91" y2="109.31"/><line class="a" x1="324.25" y1="104.99" x2="320.05" y2="112.44"/><line class="a" x1="324.25" y1="104.99" x2="317.64" y2="102.2"/><line class="a" x1="586.37" y1="120.43" x2="580.89" y2="141.88"/><line class="a" x1="580.89" y1="141.88" x2="567.66" y2="139.77"/><path class="b" d="M669.27,134.05c4.87,1.76,34.21,12.73,41.9,32.31,1,2.62,3,7.8,1.44,13.85-.12.48-3.21,11.81-13.46,14.08a17.91,17.91,0,0,1-11.78-1.67c.34.83.8,2.06,1.25,3.57,2.16,7.33,1.48,12.92.33,23.28-1.67,15-1.78,17-3,21.85-2.06,8-4.88,11.15-7.33,13.3a23,23,0,0,1-8.5,4.55c-8.27,2.71-20.28,1.53-21.31,1.42Q659,197.32,669.27,134.05Z" transform="translate(-55.87 -129.23)"/><path class="c" d="M591.92,179.71c-1.42-.88-10.47-6.68-11.06-16.21-.54-8.68,6.29-14.8,11.06-19.08,9.2-8.25,19.4-10.56,28.69-12.55a96.51,96.51,0,0,1,32.91-1.3c6,.82,28,4.12,43.44,19.34,3.92,3.87,6.48,7.6,7.63,12.29.4,1.63,2.25,10.05-2.9,17.51-4.69,6.8-13.44,10.22-22.37,8.89-.78,12.54-1.85,27.72-3.42,45.74-.66,7.53-1.48,15.64-7.64,20.91-1.52,1.31-4.94,3.78-15,5-9.7,1.14-15.52-.09-35-3.53-20.21-3.55-26.58-4.43-29.71-10.06a14.6,14.6,0,0,1-1.58-8.1C587.77,217.64,591.31,185.21,591.92,179.71Z" transform="translate(-55.87 -129.23)"/><ellipse class="d" cx="622.25" cy="172.26" rx="13.17" ry="3.55" transform="translate(316.52 638.38) rotate(-82.71)"/><ellipse class="d" cx="649.33" cy="176.61" rx="13.17" ry="3.55" transform="translate(335.85 669.04) rotate(-82.71)"/><line class="a" x1="548.29" y1="124.93" x2="542.71" y2="147.44"/><line class="a" x1="542.71" y1="147.44" x2="528.85" y2="145.95"/><line class="a" x1="808.43" y1="114.93" x2="802.84" y2="137.44"/><line class="a" x1="802.84" y1="137.44" x2="788.98" y2="135.95"/><path class="b" d="M929.4,134.05c4.88,1.76,34.21,12.73,41.91,32.31,1,2.62,3,7.8,1.44,13.85-.13.48-3.21,11.81-13.46,14.08a17.88,17.88,0,0,1-11.78-1.67c.33.83.79,2.06,1.24,3.57,2.17,7.33,1.49,12.92.34,23.28-1.67,15-1.78,17-3,21.85-2.06,8-4.87,11.15-7.33,13.3a22.93,22.93,0,0,1-8.49,4.55c-8.27,2.71-20.28,1.53-21.32,1.42Q919.17,197.32,929.4,134.05Z" transform="translate(-55.87 -129.23)"/><path class="c" d="M852.05,179.71c-1.42-.88-10.46-6.68-11-16.21-.54-8.68,6.28-14.8,11-19.08,9.2-8.25,19.4-10.56,28.7-12.55a96.45,96.45,0,0,1,32.9-1.3c6,.82,28,4.12,43.44,19.34,3.92,3.87,6.49,7.6,7.63,12.29.4,1.63,2.26,10.05-2.89,17.51-4.7,6.8-13.44,10.22-22.38,8.89-.77,12.54-1.85,27.72-3.42,45.74-.66,7.53-1.48,15.64-7.63,20.91-1.52,1.31-4.94,3.78-15,5-9.7,1.14-15.51-.09-35-3.53-20.21-3.55-26.57-4.43-29.71-10.06a14.78,14.78,0,0,1-1.58-8.1C847.9,217.64,851.45,185.21,852.05,179.71Z" transform="translate(-55.87 -129.23)"/><ellipse class="d" cx="882.39" cy="172.26" rx="13.17" ry="3.55" transform="translate(543.63 896.4) rotate(-82.71)"/><ellipse class="d" cx="909.47" cy="176.61" rx="13.17" ry="3.55" transform="translate(562.95 927.07) rotate(-82.71)"/><line class="a" x1="846.5" y1="130.43" x2="841.02" y2="151.88"/><line class="a" x1="841.02" y1="151.88" x2="827.79" y2="149.77"/><path class="d" d="M897.15,211.05c-.06,3.56-4.28,7.69-7.88,7.19s-6.61-5.73-5.73-9.17c.83-3.26,5-4.42,7.74-3.92C893.73,205.61,897.21,207.78,897.15,211.05Z" transform="translate(-55.87 -129.23)"/><line class="a" x1="1106.64" y1="120.43" x2="1101.16" y2="141.88"/><line class="a" x1="1101.16" y1="141.88" x2="1087.93" y2="139.77"/><path class="b" d="M1189.54,134.05c4.87,1.76,34.21,12.73,41.9,32.31,1,2.62,3,7.8,1.44,13.85-.12.48-3.21,11.81-13.46,14.08a17.89,17.89,0,0,1-11.78-1.67c.33.83.8,2.06,1.24,3.57,2.17,7.33,1.49,12.92.34,23.28-1.67,15-1.78,17-3,21.85-2.06,8-4.88,11.15-7.34,13.3a22.93,22.93,0,0,1-8.49,4.55c-8.27,2.71-20.28,1.53-21.31,1.42Q1179.29,197.32,1189.54,134.05Z" transform="translate(-55.87 -129.23)"/><path class="c" d="M1112.19,179.71c-1.43-.88-10.47-6.68-11.06-16.21-.54-8.68,6.29-14.8,11.06-19.08,9.2-8.25,19.39-10.56,28.69-12.55a96.51,96.51,0,0,1,32.91-1.3c5.94.82,28,4.12,43.43,19.34,3.92,3.87,6.49,7.6,7.64,12.29.4,1.63,2.25,10.05-2.9,17.51-4.69,6.8-13.44,10.22-22.37,8.89-.78,12.54-1.86,27.72-3.43,45.74-.65,7.53-1.47,15.64-7.63,20.91-1.52,1.31-4.94,3.78-15,5-9.69,1.14-15.51-.09-35-3.53-20.22-3.55-26.58-4.43-29.72-10.06a14.67,14.67,0,0,1-1.57-8.1C1108,217.64,1111.58,185.21,1112.19,179.71Z" transform="translate(-55.87 -129.23)"/><ellipse class="d" cx="1142.52" cy="172.26" rx="13.17" ry="3.55" transform="translate(770.74 1154.43) rotate(-82.71)"/><ellipse class="d" cx="1169.6" cy="176.61" rx="13.17" ry="3.55" transform="translate(790.06 1185.09) rotate(-82.71)"/><line class="a" x1="1068.56" y1="124.93" x2="1062.98" y2="147.44"/><line class="a" x1="1062.98" y1="147.44" x2="1049.12" y2="145.95"/><line class="a" x1="1328.56" y1="114.93" x2="1322.98" y2="137.44"/><line class="a" x1="1322.98" y1="137.44" x2="1309.12" y2="135.95"/><path class="b" d="M1449.54,134.05c4.87,1.76,34.21,12.73,41.9,32.31,1,2.62,3,7.8,1.44,13.85-.12.48-3.21,11.81-13.46,14.08a17.89,17.89,0,0,1-11.78-1.67c.33.83.8,2.06,1.24,3.57,2.17,7.33,1.49,12.92.34,23.28-1.67,15-1.78,17-3,21.85-2.06,8-4.88,11.15-7.34,13.3a22.93,22.93,0,0,1-8.49,4.55c-8.27,2.71-20.28,1.53-21.31,1.42Q1439.29,197.32,1449.54,134.05Z" transform="translate(-55.87 -129.23)"/><path class="c" d="M1372.19,179.71c-1.43-.88-10.47-6.68-11.06-16.21-.54-8.68,6.29-14.8,11.06-19.08,9.2-8.25,19.39-10.56,28.69-12.55a96.51,96.51,0,0,1,32.91-1.3c5.94.82,28,4.12,43.43,19.34,3.92,3.87,6.49,7.6,7.64,12.29.4,1.63,2.25,10.05-2.9,17.51-4.69,6.8-13.44,10.22-22.37,8.89-.78,12.54-1.86,27.72-3.43,45.74-.65,7.53-1.47,15.64-7.63,20.91-1.52,1.31-4.94,3.78-15,5-9.69,1.14-15.51-.09-35-3.53-20.22-3.55-26.58-4.43-29.72-10.06a14.67,14.67,0,0,1-1.57-8.1C1368,217.64,1371.58,185.21,1372.19,179.71Z" transform="translate(-55.87 -129.23)"/><ellipse class="d" cx="1402.52" cy="172.26" rx="13.17" ry="3.55" transform="translate(997.73 1412.33) rotate(-82.71)"/><ellipse class="d" cx="1429.6" cy="176.61" rx="13.17" ry="3.55" transform="translate(1017.05 1442.99) rotate(-82.71)"/><line class="a" x1="1366.64" y1="130.43" x2="1361.16" y2="151.88"/><line class="a" x1="1361.16" y1="151.88" x2="1347.93" y2="149.77"/><line class="a" x1="1389" y1="95.91" x2="1374.27" y2="60.68"/><line class="a" x1="1378.59" y1="71.02" x2="1371.15" y2="66.82"/><line class="a" x1="1378.59" y1="71.02" x2="1381.38" y2="64.42"/><line class="a" x1="1630.64" y1="120.43" x2="1625.16" y2="141.88"/><line class="a" x1="1625.16" y1="141.88" x2="1611.93" y2="139.77"/><path class="b" d="M1713.54,134.05c4.87,1.76,34.21,12.73,41.9,32.31,1,2.62,3,7.8,1.44,13.85-.12.48-3.21,11.81-13.46,14.08a17.89,17.89,0,0,1-11.78-1.67c.33.83.8,2.06,1.24,3.57,2.17,7.33,1.49,12.92.34,23.28-1.67,15-1.78,17-3,21.85-2.06,8-4.88,11.15-7.34,13.3a22.93,22.93,0,0,1-8.49,4.55c-8.27,2.71-20.28,1.53-21.31,1.42Q1703.29,197.32,1713.54,134.05Z" transform="translate(-55.87 -129.23)"/><path class="c" d="M1636.19,179.71c-1.43-.88-10.47-6.68-11.06-16.21-.54-8.68,6.29-14.8,11.06-19.08,9.2-8.25,19.39-10.56,28.69-12.55a96.51,96.51,0,0,1,32.91-1.3c5.94.82,28,4.12,43.43,19.34,3.92,3.87,6.49,7.6,7.64,12.29.4,1.63,2.25,10.05-2.9,17.51-4.69,6.8-13.44,10.22-22.37,8.89-.78,12.54-1.86,27.72-3.43,45.74-.65,7.53-1.47,15.64-7.63,20.91-1.52,1.31-4.94,3.78-15,5-9.69,1.14-15.51-.09-35-3.53-20.22-3.55-26.58-4.43-29.72-10.06a14.67,14.67,0,0,1-1.57-8.1C1632,217.64,1635.58,185.21,1636.19,179.71Z" transform="translate(-55.87 -129.23)"/><ellipse class="d" cx="1666.52" cy="172.26" rx="13.17" ry="3.55" transform="translate(1228.21 1674.19) rotate(-82.71)"/><ellipse class="d" cx="1693.6" cy="176.61" rx="13.17" ry="3.55" transform="translate(1247.53 1704.85) rotate(-82.71)"/><path class="d" d="M1695.51,209.4c1.38,3.88-10.66,15.91-23.23,14.22s-21.07-16.75-18.67-20.09c1.44-2,6.1,1.1,20.33,3.14C1688.88,208.81,1694.64,207,1695.51,209.4Z" transform="translate(-55.87 -129.23)"/><line class="a" x1="1592.56" y1="124.93" x2="1586.98" y2="147.44"/><line class="a" x1="1586.98" y1="147.44" x2="1573.12" y2="145.95"/><line class="a" x1="1857.92" y1="81.47" x2="1843.06" y2="116.64"/><line class="a" x1="1847.42" y1="106.31" x2="1849.63" y2="114.57"/><line class="a" x1="1847.42" y1="106.31" x2="1840.75" y2="108.94"/><path class="b" d="M1990.54,134.05c4.87,1.76,34.21,12.73,41.9,32.31,1,2.62,3,7.8,1.44,13.85-.12.48-3.21,11.81-13.46,14.08a17.89,17.89,0,0,1-11.78-1.67c.33.83.8,2.06,1.24,3.57,2.17,7.33,1.49,12.92.34,23.28-1.67,15-1.78,17-3,21.85-2.06,8-4.88,11.15-7.34,13.3a22.93,22.93,0,0,1-8.49,4.55c-8.27,2.71-20.28,1.53-21.31,1.42Q1980.29,197.32,1990.54,134.05Z" transform="translate(-55.87 -129.23)"/><path class="c" d="M1913.19,179.71c-1.43-.88-10.47-6.68-11.06-16.21-.54-8.68,6.29-14.8,11.06-19.08,9.2-8.25,19.39-10.56,28.69-12.55a96.51,96.51,0,0,1,32.91-1.3c5.94.82,28,4.12,43.43,19.34,3.92,3.87,6.49,7.6,7.64,12.29.4,1.63,2.25,10.05-2.9,17.51-4.69,6.8-13.44,10.22-22.37,8.89-.78,12.54-1.86,27.72-3.43,45.74-.65,7.53-1.47,15.64-7.63,20.91-1.52,1.31-4.94,3.78-15,5-9.69,1.14-15.51-.09-35-3.53-20.22-3.55-26.58-4.43-29.72-10.06a14.67,14.67,0,0,1-1.57-8.1C1909,217.64,1912.58,185.21,1913.19,179.71Z" transform="translate(-55.87 -129.23)"/><ellipse class="d" cx="1943.52" cy="172.26" rx="13.17" ry="3.55" transform="translate(1470.04 1948.95) rotate(-82.71)"/><ellipse class="d" cx="1970.6" cy="176.61" rx="13.17" ry="3.55" transform="translate(1489.37 1979.61) rotate(-82.71)"/><path class="d" d="M1972.51,209.4c1.38,3.88-10.66,15.91-23.23,14.22s-21.07-16.75-18.67-20.09c1.44-2,6.1,1.1,20.33,3.14C1965.88,208.81,1971.64,207,1972.51,209.4Z" transform="translate(-55.87 -129.23)"/><line class="a" x1="1869.56" y1="124.93" x2="1863.98" y2="147.44"/><line class="a" x1="1863.98" y1="147.44" x2="1850.12" y2="145.95"/><line class="a" x1="1907.64" y1="130.43" x2="1902.16" y2="151.88"/><line class="a" x1="1902.16" y1="151.88" x2="1888.93" y2="149.77"/><line class="a" x1="1930.32" y1="94.77" x2="1915.82" y2="130.1"/><line class="a" x1="1920.08" y1="119.73" x2="1922.38" y2="127.96"/><line class="a" x1="1920.08" y1="119.73" x2="1913.44" y2="122.43"/><path class="d" d="M640,211.75c.66,1.85-5.08,7.58-11.07,6.77s-10-8-8.89-9.56c.68-1,2.9.52,9.69,1.49C636.81,211.47,639.56,210.59,640,211.75Z" transform="translate(-55.87 -129.23)"/><path class="d" d="M1160.46,211.46c.66,1.85-5.08,7.58-11.07,6.77s-10-8-8.89-9.57c.69-.95,2.9.53,9.69,1.5C1157.3,211.18,1160.05,210.3,1160.46,211.46Z" transform="translate(-55.87 -129.23)"/><path class="d" d="M1425.84,210.45c1,2.84-7.8,11.64-17,10.41s-15.41-12.26-13.65-14.7c1-1.46,4.46.81,14.87,2.3C1421,210,1425.21,208.67,1425.84,210.45Z" transform="translate(-55.87 -129.23)"/><line class="a" x1="609.11" y1="95.68" x2="573.79" y2="81.18"/><line class="a" x1="584.16" y1="85.44" x2="575.93" y2="87.74"/><line class="a" x1="584.16" y1="85.44" x2="581.46" y2="78.8"/><line class="a" x1="868.95" y1="95.13" x2="854.22" y2="59.9"/><line class="a" x1="858.54" y1="70.24" x2="851.1" y2="66.05"/><line class="a" x1="858.54" y1="70.24" x2="861.33" y2="63.64"/><line class="a" x1="1129.54" y1="95.83" x2="1144.04" y2="60.51"/><line class="a" x1="1139.78" y1="70.88" x2="1137.49" y2="62.65"/><line class="a" x1="1139.78" y1="70.88" x2="1146.43" y2="68.18"/><line class="a" x1="1653.3" y1="94.51" x2="1617.98" y2="80.01"/><line class="a" x1="1628.35" y1="84.27" x2="1620.12" y2="86.57"/><line class="a" x1="1628.35" y1="84.27" x2="1625.65" y2="77.63"/></svg>