<svg xmlns="http://www.w3.org/2000/svg" viewBox="0 0 88.04 66.07"><defs><style>.a{fill:none;}.a,.b{stroke:#6d6e71;stroke-miterlimit:10;}.b{fill:#6d6e71;}.c{font-size:20px;fill:#231f20;font-family:MyriadPro-Regular, Myriad Pro;}</style></defs><title>icon</title><path class="a" d="M248.36,69.67H177.23c-4.39,0-7.95,3-7.95,6.73v35.21h87V76.4C256.32,72.69,252.75,69.67,248.36,69.67Zm-65.19,21H172.43V87.39h10.74Z" transform="translate(-168.78 -46.04)"/><path class="a" d="M238.36,64.48a6.88,6.88,0,0,1-2.27,4.82H190.7a6.87,6.87,0,0,1-2.28-4.82c0-6.38,11.18-11.55,25-11.55a47.6,47.6,0,0,1,13.88,2C234,57,238.36,60.48,238.36,64.48Z" transform="translate(-168.78 -46.04)"/><path class="a" d="M227.27,54.88a47.6,47.6,0,0,0-13.88-2c-13.79,0-25,5.17-25,11.55a6.87,6.87,0,0,0,2.28,4.82H180.42a5.3,5.3,0,0,1-.85-1.61c-2-6.07,7.07-14.44,20.18-18.71s25.35-2.8,27.32,3.27A5.81,5.81,0,0,1,227.27,54.88Z" transform="translate(-168.78 -46.04)"/><line class="a" x1="14.39" y1="32.96" x2="73.65" y2="32.96"/><line class="a" x1="9.02" y1="59.16" x2="9.02" y2="44.6"/><line class="a" x1="9.02" y1="41.35" x2="9.02" y2="38.8"/><rect class="a" x="3.65" y="41.35" width="10.74" height="3.24"/><ellipse class="b" cx="39.37" cy="14.99" rx="0.45" ry="1.64"/><ellipse class="b" cx="49.85" cy="14.99" rx="0.45" ry="1.64"/><path class="a" d="M211.09,66a2.39,2.39,0,0,0,2.12,1.13A2.52,2.52,0,0,0,215.14,66" transform="translate(-168.78 -46.04)"/><text class="c" transform="translate(18.66 55.55)">Home</text></svg>